<svg width="261" height="50" viewBox="0 0 261 50" fill="none" xmlns="http://www.w3.org/2000/svg">
<path d="M0 44V2H12V20H30V2H42V44H30V26H12V44H0ZM48 44V2H90V8H60V20H84V26H60V38H90V44H48ZM114 44V8H102V2H138V8H126V44H114ZM150 44V38H162V8H150V2H186V8H174V38H186V44H150ZM204 44V38H198V32H192V14H198V8H204V2H228V8H234V14H222V8H210V14H204V32H210V38H222V32H234V38H228V44H204Z" fill="white"/>
<path d="M247.875 45L240 45L240 38.25L241.125 38.25L241.125 37.125L244.5 37.125L244.5 39.375L245.625 39.375L245.625 38.25L246.75 38.25L246.75 37.125L247.875 37.125L247.875 40.5L246.75 40.5L246.75 41.625L245.625 41.625L245.625 42.75L247.875 42.75L247.875 45ZM244.5 42.75L244.5 40.5L243.375 40.5L243.375 39.375L241.125 39.375L241.125 42.75L244.5 42.75ZM247.875 36L240 36L240 28.125L241.125 28.125L241.125 33.75L243.375 33.75L243.375 29.25L244.5 29.25L244.5 33.75L246.75 33.75L246.75 28.125L247.875 28.125L247.875 36ZM247.875 23.625L241.125 23.625L241.125 25.875L240 25.875L240 19.125L241.125 19.125L241.125 21.375L247.875 21.375L247.875 23.625ZM247.875 18L240 18L240 11.25L241.125 11.25L241.125 10.125L244.5 10.125L244.5 12.375L245.625 12.375L245.625 11.25L246.75 11.25L246.75 10.125L247.875 10.125L247.875 13.5L246.75 13.5L246.75 14.625L245.625 14.625L245.625 15.75L247.875 15.75L247.875 18ZM244.5 15.75L244.5 13.5L243.375 13.5L243.375 12.375L241.125 12.375L241.125 15.75L244.5 15.75ZM247.875 7.875L246.75 7.875L246.75 9L241.125 9L241.125 7.875L240 7.875L240 2.25L241.125 2.25L241.125 1.125L246.75 1.125L246.75 2.25L247.875 2.25L247.875 7.875ZM246.75 6.75L246.75 3.375L241.125 3.375L241.125 6.75L246.75 6.75Z" fill="white"/>
<path d="M259.875 38.75L258.75 38.75L258.75 39.875L257.625 39.875L257.625 41L254.25 41L254.25 39.875L253.125 39.875L253.125 38.75L252 38.75L252 33.125L253.125 33.125L253.125 37.625L254.25 37.625L254.25 38.75L257.625 38.75L257.625 37.625L258.75 37.625L258.75 35.375L256.5 35.375L256.5 36.5L255.375 36.5L255.375 33.125L259.875 33.125L259.875 38.75ZM259.875 32L254.25 32L254.25 30.875L253.125 30.875L253.125 29.75L252 29.75L252 26.375L253.125 26.375L253.125 25.25L254.25 25.25L254.25 24.125L259.875 24.125L259.875 26.375L257.625 26.375L257.625 29.75L259.875 29.75L259.875 32ZM256.5 29.75L256.5 26.375L254.25 26.375L254.25 27.5L253.125 27.5L253.125 28.625L254.25 28.625L254.25 29.75L256.5 29.75ZM259.875 23L252 23L252 20.75L253.125 20.75L253.125 19.625L254.25 19.625L254.25 18.5L253.125 18.5L253.125 17.375L252 17.375L252 15.125L259.875 15.125L259.875 17.375L255.375 17.375L255.375 18.5L257.625 18.5L257.625 19.625L255.375 19.625L255.375 20.75L259.875 20.75L259.875 23ZM259.875 14L252 14L252 6.125L253.125 6.125L253.125 11.75L255.375 11.75L255.375 7.25L256.5 7.25L256.5 11.75L258.75 11.75L258.75 6.125L259.875 6.125L259.875 14Z" fill="white"/>
</svg>
